<svg id="visual" viewBox="0 0 1200 200" width="1200" height="200" xmlns="http://www.w3.org/2000/svg" xmlns:xlink="http://www.w3.org/1999/xlink" version="1.1"><rect x="0" y="0" width="1200" height="200" fill="#0b6e66"></rect><path d="M0 163L20 163.5C40 164 80 165 120 168.2C160 171.3 200 176.7 240 178.8C280 181 320 180 360 182C400 184 440 189 480 187.3C520 185.7 560 177.3 600 174C640 170.7 680 172.3 720 168.8C760 165.3 800 156.7 840 159.8C880 163 920 178 960 185C1000 192 1040 191 1080 191.7C1120 192.3 1160 194.7 1180 195.8L1200 197" fill="none" stroke-linecap="round" stroke-linejoin="miter" stroke="#ffd7c3" stroke-width="40"></path></svg>