<svg id="visual" viewBox="0 0 900 600" width="900" height="600" xmlns="http://www.w3.org/2000/svg" xmlns:xlink="http://www.w3.org/1999/xlink" version="1.1"><rect x="0" y="0" width="900" height="600" fill="#0b6e66"></rect><path d="M0 431L21.5 425C43 419 86 407 128.8 401.7C171.7 396.3 214.3 397.7 257.2 405.2C300 412.7 343 426.3 385.8 426.2C428.7 426 471.3 412 514.2 418.3C557 424.7 600 451.3 642.8 471.2C685.7 491 728.3 504 771.2 506.5C814 509 857 501 878.5 497L900 493L900 601L878.5 601C857 601 814 601 771.2 601C728.3 601 685.7 601 642.8 601C600 601 557 601 514.2 601C471.3 601 428.7 601 385.8 601C343 601 300 601 257.2 601C214.3 601 171.7 601 128.8 601C86 601 43 601 21.5 601L0 601Z" fill="#ffd7c3" stroke-linecap="round" stroke-linejoin="miter"></path></svg>