<?xml version="1.0" encoding="UTF-8"?>
<!-- Generated by Pixelmator Pro 3.4.3 -->
<svg width="168" height="189" viewBox="0 0 168 189" xmlns="http://www.w3.org/2000/svg">
    <g id="BG1"/>
    <g id="graphics">
        <g id="Group"/>
        <g id="g1"/>
        <g id="g2">
            <path id="Path" fill="#ffffff" stroke="none" d="M 115.934998 61.996002 C 120.274994 55.812012 122.829987 48.28302 122.829987 40.153992 C 122.829987 19.123016 105.778015 2.071014 84.744995 2.071014 C 63.712006 2.071014 46.661987 19.123016 46.661987 40.153992 C 46.661987 48.28302 49.216003 55.811005 53.556 61.996002 C 2.678009 80.778015 -7.161987 133.249023 17.026001 166.125992 C 21.321014 171.965012 26.688995 177.186996 33.092987 181.488998 C 43.553009 188.51799 60.350006 185.466995 59.514008 167.973007 L 59.514008 158.867996 C 59.514008 150.220993 55.709015 146.964005 49.954987 146.964005 L 48.786011 146.964005 C 44.809998 146.964005 42.950989 141.465988 45.934998 138.529022 L 77.088989 111.995026 C 81.748993 107.413025 87.911011 107.271027 92.714996 111.995026 L 123.868988 138.529022 C 126.852997 141.465988 124.993011 146.964005 121.015991 146.964005 L 119.848999 146.964005 C 114.092987 146.964005 110.290009 150.220993 110.290009 158.867996 C 110.290009 174.229996 110.214996 167.663986 110.544006 170.520004 C 112.531006 187.764999 129.161987 186.233994 136.94101 181.487991 C 143.528015 177.469986 148.713989 171.964005 153.009003 166.124985 C 177.198975 133.249023 166.812988 80.778992 115.934998 61.996002"/>
            <path id="path1" fill="#ffffff" stroke="none" d="M 94.507996 169.91301 C 94.507996 171.732986 93.032013 173.210007 91.210999 173.210007 L 78.679993 173.210007 C 76.858002 173.210007 75.381989 171.732986 75.381989 169.91301 L 75.381989 157.380997 C 75.381989 155.560013 76.858002 154.081985 78.679993 154.081985 L 91.210999 154.081985 C 93.032013 154.081985 94.507996 155.560013 94.507996 157.380997 L 94.507996 169.91301 Z"/>
        </g>
    </g>
</svg>
