<svg width="1920" height="80" viewBox="0 0 1920 80" fill="none" xmlns="http://www.w3.org/2000/svg">
  <rect width="1920" height="80" fill="#0B6E66"/>

  <path d="M-100 40C100 20 300 60 500 40C700 20 900 60 1100 40C1300 20 1500 60 1700 40C1900 20 2100 60 2300 40" stroke="rgba(16, 160, 144, 0.2)" stroke-width="3" stroke-linecap="round"/>

  <path d="M-150 50C50 30 250 70 450 50C650 30 850 70 1050 50C1250 30 1450 70 1650 50C1850 30 2050 70 2250 50" stroke="rgba(16, 160, 144, 0.15)" stroke-width="2" stroke-linecap="round"/>

  <circle cx="100" cy="20" r="1.5" fill="rgba(255, 215, 195, 0.2)"/>
  <circle cx="350" cy="60" r="1" fill="rgba(255, 215, 195, 0.15)"/>
  <circle cx="600" cy="25" r="1.5" fill="rgba(255, 215, 195, 0.2)"/>
  <circle cx="850" cy="55" r="1" fill="rgba(255, 215, 195, 0.15)"/>
  <circle cx="1100" cy="30" r="1.5" fill="rgba(255, 215, 195, 0.2)"/>
  <circle cx="1350" cy="65" r="1" fill="rgba(255, 215, 195, 0.15)"/>
  <circle cx="1600" cy="20" r="1.5" fill="rgba(255, 215, 195, 0.2)"/>
  <circle cx="1850" cy="50" r="1" fill="rgba(255, 215, 195, 0.15)"/>
</svg>
